<svg xmlns="http://www.w3.org/2000/svg">
  <symbol viewBox="0 0 20 20" id="phone">
    <path
      d="M2 3a1 1 0 011-1h2.153a1 1 0 01.986.836l.74 4.435a1 1 0 01-.54 1.06l-1.548.773a11.037 11.037 0 006.105 6.105l.774-1.548a1 1 0 011.059-.54l4.435.74a1 1 0 01.836.986V17a1 1 0 01-1 1h-2C7.82 18 2 12.18 2 5V3z"
    />
  </symbol>
  <symbol viewBox="0 0 20 20" id="email">
    <path
      d="M2.003 5.884L10 9.882l7.997-3.998A2 2 0 0016 4H4a2 2 0 00-1.997 1.884z"
    />
    <path d="M18 8.118l-8 4-8-4V14a2 2 0 002 2h12a2 2 0 002-2V8.118z" />
  </symbol>
  <symbol viewBox="0 0 20 20" id="location">
    <path
      fill-rule="evenodd"
      d="M5.05 4.05a7 7 0 119.9 9.9L10 18.9l-4.95-4.95a7 7 0 010-9.9zM10 11a2 2 0 100-4 2 2 0 000 4z"
      clip-rule="evenodd"
    />
  </symbol>
  <symbol viewBox="0 0 20 20" id="close">
    <path
      fill-rule="evenodd"
      d="M4.293 4.293a1 1 0 011.414 0L10 8.586l4.293-4.293a1 1 0 111.414 1.414L11.414 10l4.293 4.293a1 1 0 01-1.414 1.414L10 11.414l-4.293 4.293a1 1 0 01-1.414-1.414L8.586 10 4.293 5.707a1 1 0 010-1.414z"
      clip-rule="evenodd"
    />
  </symbol>
  <symbol viewBox="0 0 20 20" fill="#000" id="panel-arrow">
    <path
      fill-rule="evenodd"
      d="M5.293 7.293a1 1 0 011.414 0L10 10.586l3.293-3.293a1 1 0 111.414 1.414l-4 4a1 1 0 01-1.414 0l-4-4a1 1 0 010-1.414z"
      clip-rule="evenodd"
    />
  </symbol>

  <symbol viewBox="0 0 400 400" id="twitter">
    <g data-name="Dark Blue">
      <rect fill="#1da1f2" width="400" height="400" />
    </g>
    <g data-name="Logo — FIXED">
      <path
        fill="#fff"
        d="M153.62,301.59c94.34,0,145.94-78.16,145.94-145.94,0-2.22,0-4.43-.15-6.63A104.36,104.36,0,0,0,325,122.47a102.38,102.38,0,0,1-29.46,8.07,51.47,51.47,0,0,0,22.55-28.37,102.79,102.79,0,0,1-32.57,12.45,51.34,51.34,0,0,0-87.41,46.78A145.62,145.62,0,0,1,92.4,107.81a51.33,51.33,0,0,0,15.88,68.47A50.91,50.91,0,0,1,85,169.86c0,.21,0,.43,0,.65a51.31,51.31,0,0,0,41.15,50.28,51.21,51.21,0,0,1-23.16.88,51.35,51.35,0,0,0,47.92,35.62,102.92,102.92,0,0,1-63.7,22A104.41,104.41,0,0,1,75,278.55a145.21,145.21,0,0,0,78.62,23"
      />
      <rect fill="none" width="400" height="400" />
    </g>
  </symbol>
  <symbol viewBox="0 0 400 400" id="twitter-color">
    <g data-name="Dark Blue">
      <rect width="400" height="400" />
    </g>
    <g data-name="Logo — FIXED">
      <path
        fill="#fff"
        d="M153.62,301.59c94.34,0,145.94-78.16,145.94-145.94,0-2.22,0-4.43-.15-6.63A104.36,104.36,0,0,0,325,122.47a102.38,102.38,0,0,1-29.46,8.07,51.47,51.47,0,0,0,22.55-28.37,102.79,102.79,0,0,1-32.57,12.45,51.34,51.34,0,0,0-87.41,46.78A145.62,145.62,0,0,1,92.4,107.81a51.33,51.33,0,0,0,15.88,68.47A50.91,50.91,0,0,1,85,169.86c0,.21,0,.43,0,.65a51.31,51.31,0,0,0,41.15,50.28,51.21,51.21,0,0,1-23.16.88,51.35,51.35,0,0,0,47.92,35.62,102.92,102.92,0,0,1-63.7,22A104.41,104.41,0,0,1,75,278.55a145.21,145.21,0,0,0,78.62,23"
      />
      <rect fill="none" width="400" height="400" />
    </g>
  </symbol>
  <symbol viewBox="0 0 24 24" id="linkedin">
    <path
      fill="#0077b5"
      d="M0 0v24h24v-24h-24zm8 19h-3v-11h3v11zm-1.5-12.268c-.966 0-1.75-.79-1.75-1.764s.784-1.764 1.75-1.764 1.75.79 1.75 1.764-.783 1.764-1.75 1.764zm13.5 12.268h-3v-5.604c0-3.368-4-3.113-4 0v5.604h-3v-11h3v1.765c1.397-2.586 7-2.777 7 2.476v6.759z"
    />
  </symbol>
  <symbol viewBox="0 0 24 24" id="linkedin-color">
    <path
      fill="currentColor"
      d="M0 0v24h24v-24h-24zm8 19h-3v-11h3v11zm-1.5-12.268c-.966 0-1.75-.79-1.75-1.764s.784-1.764 1.75-1.764 1.75.79 1.75 1.764-.783 1.764-1.75 1.764zm13.5 12.268h-3v-5.604c0-3.368-4-3.113-4 0v5.604h-3v-11h3v1.765c1.397-2.586 7-2.777 7 2.476v6.759z"
    />
  </symbol>
  <symbol viewBox="0 0 24 24" id="github" fill="#000">
    <path
      d="M12 0c-6.626 0-12 5.373-12 12 0 5.302 3.438 9.8 8.207 11.387.599.111.793-.261.793-.577v-2.234c-3.338.726-4.033-1.416-4.033-1.416-.546-1.387-1.333-1.756-1.333-1.756-1.089-.745.083-.729.083-.729 1.205.084 1.839 1.237 1.839 1.237 1.07 1.834 2.807 1.304 3.492.997.107-.775.418-1.305.762-1.604-2.665-.305-5.467-1.334-5.467-5.931 0-1.311.469-2.381 1.236-3.221-.124-.303-.535-1.524.117-3.176 0 0 1.008-.322 3.301 1.23.957-.266 1.983-.399 3.003-.404 1.02.005 2.047.138 3.006.404 2.291-1.552 3.297-1.23 3.297-1.23.653 1.653.242 2.874.118 3.176.77.84 1.235 1.911 1.235 3.221 0 4.609-2.807 5.624-5.479 5.921.43.372.823 1.102.823 2.222v3.293c0 .319.192.694.801.576 4.765-1.589 8.199-6.086 8.199-11.386 0-6.627-5.373-12-12-12z"
    />
  </symbol>

  <symbol viewBox="0 0 24 24" id="github-color">
    <path
      d="M12 0c-6.626 0-12 5.373-12 12 0 5.302 3.438 9.8 8.207 11.387.599.111.793-.261.793-.577v-2.234c-3.338.726-4.033-1.416-4.033-1.416-.546-1.387-1.333-1.756-1.333-1.756-1.089-.745.083-.729.083-.729 1.205.084 1.839 1.237 1.839 1.237 1.07 1.834 2.807 1.304 3.492.997.107-.775.418-1.305.762-1.604-2.665-.305-5.467-1.334-5.467-5.931 0-1.311.469-2.381 1.236-3.221-.124-.303-.535-1.524.117-3.176 0 0 1.008-.322 3.301 1.23.957-.266 1.983-.399 3.003-.404 1.02.005 2.047.138 3.006.404 2.291-1.552 3.297-1.23 3.297-1.23.653 1.653.242 2.874.118 3.176.77.84 1.235 1.911 1.235 3.221 0 4.609-2.807 5.624-5.479 5.921.43.372.823 1.102.823 2.222v3.293c0 .319.192.694.801.576 4.765-1.589 8.199-6.086 8.199-11.386 0-6.627-5.373-12-12-12z"
    />
  </symbol>
  <symbol fill="none" viewBox="0 0 24 24" stroke="#fff" id="trash">
    <path
      stroke-linecap="round"
      stroke-linejoin="round"
      stroke-width="2"
      d="M19 7l-.867 12.142A2 2 0 0116.138 21H7.862a2 2 0 01-1.995-1.858L5 7m5 4v6m4-6v6m1-10V4a1 1 0 00-1-1h-4a1 1 0 00-1 1v3M4 7h16"
    />
  </symbol>

  <symbol viewBox="0 0 20 20" fill="currentColor" id="website">
    <path
      fill-rule="evenodd"
      d="M4.083 9h1.946c.089-1.546.383-2.97.837-4.118A6.004 6.004 0 004.083 9zM10 2a8 8 0 100 16 8 8 0 000-16zm0 2c-.076 0-.232.032-.465.262-.238.234-.497.623-.737 1.182-.389.907-.673 2.142-.766 3.556h3.936c-.093-1.414-.377-2.649-.766-3.556-.24-.56-.5-.948-.737-1.182C10.232 4.032 10.076 4 10 4zm3.971 5c-.089-1.546-.383-2.97-.837-4.118A6.004 6.004 0 0115.917 9h-1.946zm-2.003 2H8.032c.093 1.414.377 2.649.766 3.556.24.56.5.948.737 1.182.233.23.389.262.465.262.076 0 .232-.032.465-.262.238-.234.498-.623.737-1.182.389-.907.673-2.142.766-3.556zm1.166 4.118c.454-1.147.748-2.572.837-4.118h1.946a6.004 6.004 0 01-2.783 4.118zm-6.268 0C6.412 13.97 6.118 12.546 6.03 11H4.083a6.004 6.004 0 002.783 4.118z"
      clip-rule="evenodd"
    />
  </symbol>

  <symbol viewBox="0 0 24 24" fill="currentColor" id="instagram">
  <svg
      xmlns="http://www.w3.org/2000/svg"
      viewBox="0 0 48 48"
      width="24px"
      height="24px"
    ><path
        fill="#304ffe"
        d="M41.67,13.48c-0.4,0.26-0.97,0.5-1.21,0.77c-0.09,0.09-0.14,0.19-0.12,0.29v1.03l-0.3,1.01l-0.3,1l-0.33,1.1 l-0.68,2.25l-0.66,2.22l-0.5,1.67c0,0.26-0.01,0.52-0.03,0.77c-0.07,0.96-0.27,1.88-0.59,2.74c-0.19,0.53-0.42,1.04-0.7,1.52 c-0.1,0.19-0.22,0.38-0.34,0.56c-0.4,0.63-0.88,1.21-1.41,1.72c-0.41,0.41-0.86,0.79-1.35,1.11c0,0,0,0-0.01,0 c-0.08,0.07-0.17,0.13-0.27,0.18c-0.31,0.21-0.64,0.39-0.98,0.55c-0.23,0.12-0.46,0.22-0.7,0.31c-0.05,0.03-0.11,0.05-0.16,0.07 c-0.57,0.27-1.23,0.45-1.89,0.54c-0.04,0.01-0.07,0.01-0.11,0.02c-0.4,0.07-0.79,0.13-1.19,0.16c-0.18,0.02-0.37,0.03-0.55,0.03 l-0.71-0.04l-3.42-0.18c0-0.01-0.01,0-0.01,0l-1.72-0.09c-0.13,0-0.27,0-0.4-0.01c-0.54-0.02-1.06-0.08-1.58-0.19 c-0.01,0-0.01,0-0.01,0c-0.95-0.18-1.86-0.5-2.71-0.93c-0.47-0.24-0.93-0.51-1.36-0.82c-0.18-0.13-0.35-0.27-0.52-0.42 c-0.48-0.4-0.91-0.83-1.31-1.27c-0.06-0.06-0.11-0.12-0.16-0.18c-0.06-0.06-0.12-0.13-0.17-0.19c-0.38-0.48-0.7-0.97-0.96-1.49 c-0.24-0.46-0.43-0.95-0.58-1.49c-0.06-0.19-0.11-0.37-0.15-0.57c-0.01-0.01-0.02-0.03-0.02-0.05c-0.1-0.41-0.19-0.84-0.24-1.27 c-0.06-0.33-0.09-0.66-0.09-1c-0.02-0.13-0.02-0.27-0.02-0.4l1.91-2.95l1.87-2.88l0.85-1.31l0.77-1.18l0.26-0.41v-1.03 c0.02-0.23,0.03-0.47,0.02-0.69c-0.01-0.7-0.15-1.38-0.38-2.03c-0.22-0.69-0.53-1.34-0.85-1.94c-0.38-0.69-0.78-1.31-1.11-1.87 C14,7.4,13.66,6.73,13.75,6.26C14.47,6.09,15.23,6,16,6h16c4.18,0,7.78,2.6,9.27,6.26C41.43,12.65,41.57,13.06,41.67,13.48z"
      /><path
        fill="#4928f4"
        d="M42,16v0.27l-1.38,0.8l-0.88,0.51l-0.97,0.56l-1.94,1.13l-1.9,1.1l-1.94,1.12l-0.77,0.45 c0,0.48-0.12,0.92-0.34,1.32c-0.31,0.58-0.83,1.06-1.49,1.47c-0.67,0.41-1.49,0.74-2.41,0.98c0,0,0-0.01-0.01,0 c-3.56,0.92-8.42,0.5-10.78-1.26c-0.66-0.49-1.12-1.09-1.32-1.78c-0.06-0.23-0.09-0.48-0.09-0.73v-7.19 c0.01-0.15-0.09-0.3-0.27-0.45c-0.54-0.43-1.81-0.84-3.23-1.25c-1.11-0.31-2.3-0.62-3.3-0.92c-0.79-0.24-1.46-0.48-1.86-0.71 c0.18-0.35,0.39-0.7,0.61-1.03c1.4-2.05,3.54-3.56,6.02-4.13C14.47,6.09,15.23,6,16,6h10.8c5.37,0.94,10.32,3.13,14.47,6.26 c0.16,0.39,0.3,0.8,0.4,1.22c0.18,0.66,0.29,1.34,0.32,2.05C42,15.68,42,15.84,42,16z"
      /><path
        fill="#6200ea"
        d="M42,16v4.41l-0.22,0.68l-0.75,2.33l-0.78,2.4l-0.41,1.28l-0.38,1.19l-0.37,1.13l-0.36,1.12l-0.19,0.59 l-0.25,0.78c0,0.76-0.02,1.43-0.07,2c-0.01,0.06-0.02,0.12-0.02,0.18c-0.06,0.53-0.14,0.98-0.27,1.36 c-0.01,0.06-0.03,0.12-0.05,0.17c-0.26,0.72-0.65,1.18-1.23,1.48c-0.14,0.08-0.3,0.14-0.47,0.2c-0.53,0.18-1.2,0.27-2.02,0.32 c-0.6,0.04-1.29,0.05-2.07,0.05H31.4l-1.19-0.05L30,37.61l-2.17-0.09l-2.2-0.09l-7.25-0.3l-1.88-0.08h-0.26 c-0.78-0.01-1.45-0.06-2.03-0.14c-0.84-0.13-1.49-0.35-1.98-0.68c-0.7-0.45-1.11-1.11-1.35-2.03c-0.06-0.22-0.11-0.45-0.14-0.7 c-0.1-0.58-0.15-1.25-0.18-2c0-0.15,0-0.3-0.01-0.46c-0.01-0.01,0-0.01,0-0.01v-0.58c-0.01-0.29-0.01-0.59-0.01-0.9l0.05-1.61 l0.03-1.15l0.04-1.34v-0.19l0.07-2.46l0.07-2.46l0.07-2.31l0.06-2.27l0.02-0.6c0-0.31-1.05-0.49-2.22-0.64 c-0.93-0.12-1.95-0.23-2.56-0.37c0.05-0.23,0.1-0.46,0.16-0.68c0.18-0.72,0.45-1.4,0.79-2.05c0.18-0.35,0.39-0.7,0.61-1.03 c2.16-0.95,4.41-1.69,6.76-2.17c2.06-0.43,4.21-0.66,6.43-0.66c7.36,0,14.16,2.49,19.54,6.69c0.52,0.4,1.03,0.83,1.53,1.28 C42,15.68,42,15.84,42,16z"
      /><path
        fill="#673ab7"
        d="M42,18.37v4.54l-0.55,1.06l-1.05,2.05l-0.56,1.08l-0.51,0.99l-0.22,0.43c0,0.31,0,0.61-0.02,0.9 c0,0.43-0.02,0.84-0.05,1.22c-0.04,0.45-0.1,0.86-0.16,1.24c-0.15,0.79-0.36,1.47-0.66,2.03c-0.04,0.07-0.08,0.14-0.12,0.2 c-0.11,0.18-0.24,0.35-0.38,0.51c-0.18,0.22-0.38,0.41-0.61,0.57c-0.34,0.26-0.74,0.47-1.2,0.63c-0.57,0.21-1.23,0.35-2.01,0.43 c-0.51,0.05-1.07,0.08-1.68,0.08l-0.42,0.02l-2.08,0.12h-0.01L27.5,36.6l-2.25,0.13l-3.1,0.18l-3.77,0.22l-0.55,0.03 c-0.51,0-0.99-0.03-1.45-0.09c-0.05-0.01-0.09-0.02-0.14-0.02c-0.68-0.11-1.3-0.29-1.86-0.54c-0.68-0.3-1.27-0.7-1.77-1.18 c-0.44-0.43-0.82-0.92-1.13-1.47c-0.07-0.13-0.14-0.25-0.2-0.39c-0.3-0.59-0.54-1.25-0.72-1.97c-0.03-0.12-0.06-0.25-0.08-0.38 c-0.06-0.23-0.11-0.47-0.14-0.72c-0.11-0.64-0.17-1.32-0.2-2.03v-0.01c-0.01-0.29-0.02-0.57-0.02-0.87l-0.49-1.17l-0.07-0.18 L9.5,25.99L8.75,24.2l-0.12-0.29l-0.72-1.73l-0.8-1.93c0,0,0,0-0.01,0L6.29,18.3L6,17.59V16c0-0.63,0.06-1.25,0.17-1.85 c0.05-0.23,0.1-0.46,0.16-0.68c0.85-0.49,1.74-0.94,2.65-1.34c2.08-0.93,4.31-1.62,6.62-2.04c1.72-0.31,3.51-0.48,5.32-0.48 c7.31,0,13.94,2.65,19.12,6.97c0.2,0.16,0.39,0.32,0.58,0.49C41.09,17.48,41.55,17.91,42,18.37z"
      /><path
        fill="#8e24aa"
        d="M42,21.35v5.14l-0.57,1.19l-1.08,2.25l-0.01,0.03c0,0.43-0.02,0.82-0.05,1.17c-0.1,1.15-0.38,1.88-0.84,2.33 c-0.33,0.34-0.74,0.53-1.25,0.63c-0.03,0.01-0.07,0.01-0.1,0.02c-0.16,0.03-0.33,0.05-0.51,0.05c-0.62,0.06-1.35,0.02-2.19-0.04 c-0.09,0-0.19-0.01-0.29-0.02c-0.61-0.04-1.26-0.08-1.98-0.11c-0.39-0.01-0.8-0.02-1.22-0.02h-0.02l-1.01,0.08h-0.01l-2.27,0.16 l-2.59,0.2l-0.38,0.03l-3.03,0.22l-1.57,0.12l-1.55,0.11c-0.27,0-0.53,0-0.79-0.01c0,0-0.01-0.01-0.01,0 c-1.13-0.02-2.14-0.09-3.04-0.26c-0.83-0.14-1.56-0.36-2.18-0.69c-0.64-0.31-1.17-0.75-1.6-1.31c-0.41-0.55-0.71-1.24-0.9-2.07 c0-0.01,0-0.01,0-0.01c-0.14-0.67-0.22-1.45-0.22-2.33l-0.15-0.27L9.7,26.35l-0.13-0.22L9.5,25.99l-0.93-1.65l-0.46-0.83 l-0.58-1.03l-1-1.79L6,19.75v-3.68c0.88-0.58,1.79-1.09,2.73-1.55c1.14-0.58,2.32-1.07,3.55-1.47c1.34-0.44,2.74-0.79,4.17-1.02 c1.45-0.24,2.94-0.36,4.47-0.36c6.8,0,13.04,2.43,17.85,6.47c0.22,0.17,0.43,0.36,0.64,0.54c0.84,0.75,1.64,1.56,2.37,2.41 C41.86,21.18,41.94,21.26,42,21.35z"
      /><path
        fill="#c2185b"
        d="M42,24.71v7.23c-0.24-0.14-0.57-0.31-0.98-0.49c-0.22-0.11-0.47-0.22-0.73-0.32 c-0.38-0.17-0.79-0.33-1.25-0.49c-0.1-0.04-0.2-0.07-0.31-0.1c-0.18-0.07-0.37-0.13-0.56-0.19c-0.59-0.18-1.24-0.35-1.92-0.5 c-0.26-0.05-0.53-0.1-0.8-0.14c-0.87-0.15-1.8-0.24-2.77-0.25c-0.08-0.01-0.17-0.01-0.25-0.01l-2.57,0.02l-3.5,0.02h-0.01 l-7.49,0.06c-2.38,0-3.84,0.57-4.72,0.8c0,0-0.01,0-0.01,0.01c-0.93,0.24-1.22,0.09-1.3-1.54c-0.02-0.45-0.03-1.03-0.03-1.74 l-0.56-0.43l-0.98-0.74l-0.6-0.46l-0.12-0.09L8.88,24.1l-0.25-0.19l-0.52-0.4l-0.96-0.72L6,21.91v-3.4 c0.1-0.08,0.19-0.15,0.29-0.21c1.45-1,3-1.85,4.64-2.54c1.46-0.62,3-1.11,4.58-1.46c0.43-0.09,0.87-0.18,1.32-0.24 c1.33-0.23,2.7-0.34,4.09-0.34c6.01,0,11.53,2.09,15.91,5.55c0.66,0.52,1.3,1.07,1.9,1.66c0.82,0.78,1.59,1.61,2.3,2.49 c0.14,0.18,0.28,0.36,0.42,0.55C41.64,24.21,41.82,24.46,42,24.71z"
      /><path
        fill="#d81b60"
        d="M42,28.72V32c0,0.65-0.06,1.29-0.18,1.91c-0.18,0.92-0.49,1.8-0.91,2.62c-0.22,0.05-0.47,0.05-0.75,0.01 c-0.63-0.11-1.37-0.44-2.17-0.87c-0.04-0.01-0.08-0.03-0.11-0.05c-0.25-0.13-0.51-0.27-0.77-0.43c-0.53-0.29-1.09-0.61-1.65-0.91 c-0.12-0.06-0.24-0.12-0.35-0.18c-0.64-0.33-1.3-0.63-1.96-0.86c0,0,0,0-0.01,0c-0.14-0.05-0.29-0.1-0.44-0.14 c-0.57-0.16-1.15-0.26-1.71-0.26l-1.1-0.32l-4.87-1.41c0,0,0,0-0.01,0l-2.99-0.87h-0.01l-1.3-0.38c-3.76,0-6.07,1.6-7.19,0.99 c-0.44-0.23-0.7-0.81-0.79-1.95c-0.03-0.32-0.04-0.68-0.04-1.1l-1.17-0.57l-0.05-0.02h-0.01l-0.84-0.42L9.7,26.35l-0.07-0.03 l-0.17-0.09L7.5,25.28L6,24.55v-3.43c0.17-0.15,0.35-0.29,0.53-0.43c0.19-0.15,0.38-0.29,0.57-0.44c0.01,0,0.01,0,0.01,0 c1.18-0.85,2.43-1.6,3.76-2.22c1.55-0.74,3.2-1.31,4.91-1.68c0.25-0.06,0.51-0.12,0.77-0.16c1.42-0.27,2.88-0.41,4.37-0.41 c5.27,0,10.11,1.71,14.01,4.59c1.13,0.84,2.18,1.77,3.14,2.78c0.79,0.83,1.52,1.73,2.18,2.67c0.05,0.07,0.1,0.14,0.15,0.2 c0.37,0.54,0.71,1.09,1.03,1.66C41.64,28.02,41.82,28.37,42,28.72z"
      /><path
        fill="#f50057"
        d="M41.82,33.91c-0.18,0.92-0.49,1.8-0.91,2.62c-0.19,0.37-0.4,0.72-0.63,1.06c-0.14,0.21-0.29,0.41-0.44,0.6 c-0.36-0.14-0.89-0.34-1.54-0.56c0,0,0,0,0-0.01c-0.49-0.17-1.05-0.35-1.65-0.52c-0.17-0.05-0.34-0.1-0.52-0.15 c-0.71-0.19-1.45-0.36-2.17-0.46c-0.6-0.1-1.19-0.16-1.74-0.16l-0.46-0.13h-0.01l-2.42-0.7l-1.49-0.43l-1.66-0.48h-0.01l-0.54-0.15 l-6.53-1.88l-1.88-0.54l-1.4-0.33l-2.28-0.54l-0.28-0.07c0,0,0,0-0.01,0l-2.29-0.53c0-0.01,0-0.01,0-0.01l-0.41-0.09l-0.21-0.05 l-1.67-0.39l-0.19-0.05l-1.42-1.17L6,27.9v-4.08c0.37-0.36,0.75-0.7,1.15-1.03c0.12-0.11,0.25-0.21,0.38-0.31 c0.12-0.1,0.25-0.2,0.38-0.3c0.91-0.69,1.87-1.31,2.89-1.84c1.3-0.7,2.68-1.26,4.13-1.66c0.28-0.09,0.56-0.17,0.85-0.23 c1.64-0.41,3.36-0.62,5.14-0.62c4.47,0,8.63,1.35,12.07,3.66c1.71,1.15,3.25,2.53,4.55,4.1c0.66,0.79,1.26,1.62,1.79,2.5 c0.05,0.07,0.09,0.13,0.13,0.2c0.32,0.53,0.62,1.08,0.89,1.64c0.25,0.5,0.47,1,0.67,1.52C41.34,32.25,41.6,33.07,41.82,33.91z"
      /><path
        fill="#ff1744"
        d="M40.28,37.59c-0.14,0.21-0.29,0.41-0.44,0.6c-0.44,0.55-0.92,1.05-1.46,1.49c-0.47,0.39-0.97,0.74-1.5,1.04 c-0.2-0.05-0.4-0.11-0.61-0.19c-0.66-0.23-1.35-0.61-1.99-1.01c-0.96-0.61-1.79-1.27-2.16-1.57c-0.14-0.12-0.21-0.18-0.21-0.18 l-1.7-0.15L30,37.6l-2.2-0.19l-2.28-0.2l-3.37-0.3l-5.34-0.47l-0.02-0.01l-1.88-0.91l-1.9-0.92l-1.53-0.74l-0.33-0.16l-0.41-0.2 l-1.42-0.69L7.43,31.9l-0.59-0.29L6,31.35v-4.47c0.47-0.56,0.97-1.09,1.5-1.6c0.34-0.32,0.7-0.64,1.07-0.94 c0.06-0.05,0.12-0.1,0.18-0.14c0.04-0.05,0.09-0.08,0.13-0.1c0.59-0.48,1.21-0.91,1.85-1.3c0.74-0.47,1.52-0.89,2.33-1.24 c0.87-0.39,1.78-0.72,2.72-0.97c1.63-0.46,3.36-0.7,5.14-0.7c4.08,0,7.85,1.24,10.96,3.37c1.99,1.36,3.71,3.08,5.07,5.07 c0.45,0.64,0.85,1.32,1.22,2.02c0.13,0.26,0.26,0.52,0.37,0.78c0.12,0.25,0.23,0.5,0.34,0.75c0.21,0.52,0.4,1.04,0.57,1.58 c0.32,1,0.56,2.02,0.71,3.08C40.21,36.89,40.25,37.24,40.28,37.59z"
      /><path
        fill="#ff5722"
        d="M38.39,39.42c0,0.08,0,0.17-0.01,0.26c-0.47,0.39-0.97,0.74-1.5,1.04c-0.22,0.12-0.44,0.24-0.67,0.34 c-0.23,0.11-0.46,0.21-0.7,0.3c-0.34-0.18-0.8-0.4-1.29-0.61c-0.69-0.31-1.44-0.59-2.02-0.68c-0.14-0.03-0.27-0.04-0.39-0.04 l-1.64-0.21h-0.02l-2.04-0.27l-2.06-0.27l-0.96-0.12l-7.56-0.98c-0.49,0-1.01-0.03-1.55-0.1c-0.66-0.06-1.35-0.16-2.04-0.3 c-0.68-0.12-1.37-0.28-2.03-0.45c-0.69-0.16-1.37-0.35-2-0.53c-0.73-0.22-1.41-0.43-1.98-0.62c-0.47-0.15-0.87-0.29-1.18-0.4 c-0.18-0.43-0.33-0.88-0.44-1.34C6.1,33.66,6,32.84,6,32v-1.67c0.32-0.53,0.67-1.05,1.06-1.54c0.71-0.94,1.52-1.8,2.4-2.56 c0.03-0.04,0.07-0.07,0.1-0.09l0.01-0.01c0.31-0.28,0.63-0.53,0.97-0.77c0.04-0.04,0.08-0.07,0.12-0.1 c0.16-0.12,0.33-0.24,0.51-0.35c1.43-0.97,3.01-1.73,4.7-2.24c1.6-0.48,3.29-0.73,5.05-0.73c3.49,0,6.75,1.03,9.47,2.79 c2.01,1.29,3.74,2.99,5.06,4.98c0.16,0.23,0.31,0.46,0.46,0.7c0.69,1.17,1.26,2.43,1.68,3.75c0.05,0.15,0.09,0.3,0.13,0.46 c0.08,0.27,0.15,0.55,0.21,0.83c0.02,0.07,0.04,0.14,0.06,0.22c0.14,0.63,0.24,1.29,0.31,1.95c0,0.01,0,0.01,0,0.01 C38.36,38.22,38.39,38.82,38.39,39.42z"
      /><path
        fill="#ff6f00"
        d="M36.33,39.42c0,0.35-0.02,0.73-0.06,1.11c-0.02,0.18-0.04,0.36-0.06,0.53c-0.23,0.11-0.46,0.21-0.7,0.3 c-0.45,0.17-0.91,0.31-1.38,0.41c-0.32,0.07-0.65,0.13-0.98,0.16h-0.01c-0.31-0.19-0.67-0.42-1.04-0.68 c-0.67-0.47-1.37-1-1.93-1.43c-0.01-0.01-0.01-0.01-0.02-0.02c-0.59-0.45-1.01-0.79-1.01-0.79l-1.06,0.04l-2.04,0.07l-0.95,0.04 l-3.82,0.14l-3.23,0.12c-0.21,0.01-0.46,0.01-0.77,0h-0.01c-0.42-0.01-0.92-0.04-1.47-0.09c-0.64-0.05-1.34-0.11-2.05-0.18 c-0.69-0.08-1.39-0.16-2.06-0.24c-0.74-0.08-1.44-0.17-2.04-0.25c-0.47-0.06-0.88-0.11-1.21-0.15c-0.28-0.32-0.53-0.65-0.77-1.01 c-0.36-0.54-0.67-1.11-0.91-1.72c-0.18-0.43-0.33-0.88-0.44-1.34c0.29-0.89,0.67-1.73,1.12-2.54c0.36-0.66,0.78-1.29,1.24-1.89 c0.45-0.59,0.94-1.14,1.47-1.64v-0.01c0.15-0.15,0.3-0.29,0.45-0.42c0.28-0.26,0.57-0.5,0.87-0.73h0.01 c0.01-0.02,0.02-0.02,0.03-0.03c0.24-0.19,0.49-0.36,0.74-0.53c1.48-1.01,3.15-1.76,4.95-2.2c1.19-0.29,2.44-0.45,3.73-0.45 c2.54,0,4.94,0.61,7.05,1.71h0.01c1.81,0.93,3.41,2.21,4.7,3.75c0.71,0.82,1.32,1.72,1.82,2.67c0.35,0.64,0.65,1.31,0.9,1.99 c0.02,0.06,0.04,0.11,0.06,0.16c0.17,0.5,0.32,1.02,0.45,1.54c0.09,0.37,0.16,0.75,0.22,1.13c0.02,0.12,0.04,0.23,0.05,0.35 C36.28,37.99,36.33,38.7,36.33,39.42z"
      /><path
        fill="#ff9800"
        d="M34.28,39.42v0.1c0,0.34-0.03,0.77-0.06,1.23c-0.03,0.34-0.06,0.69-0.09,1.02c-0.32,0.07-0.65,0.13-0.98,0.16 h-0.01C32.76,41.98,32.39,42,32,42h-1.75l-0.38-0.11l-1.97-0.6l-2-0.6l-4.63-1.39l-2-0.6c0,0-0.83,0.33-2,0.72h-0.01 c-0.45,0.15-0.94,0.31-1.46,0.47c-0.65,0.19-1.34,0.38-2.02,0.53c-0.7,0.16-1.39,0.28-2.01,0.33c-0.19,0.02-0.38,0.03-0.55,0.03 c-0.56-0.31-1.1-0.68-1.59-1.09c-0.43-0.36-0.83-0.75-1.2-1.18c-0.28-0.32-0.53-0.65-0.77-1.01c0.07-0.45,0.15-0.89,0.27-1.32 c0.3-1.19,0.77-2.33,1.39-3.37c0.34-0.59,0.72-1.16,1.16-1.69c0.01-0.03,0.04-0.06,0.07-0.08c-0.01-0.01,0-0.01,0-0.01 c0.13-0.17,0.27-0.33,0.41-0.48c0-0.01,0-0.01,0-0.01c0.41-0.44,0.83-0.86,1.29-1.25c0.16-0.13,0.31-0.26,0.48-0.39 c0.03-0.03,0.06-0.05,0.1-0.08c2.25-1.72,5.06-2.76,8.09-2.76c3.44,0,6.57,1.29,8.94,3.41c1.14,1.03,2.11,2.26,2.84,3.63 c0.06,0.1,0.12,0.21,0.17,0.32c0.09,0.18,0.18,0.37,0.26,0.57c0.33,0.72,0.59,1.48,0.77,2.26c0.02,0.08,0.04,0.16,0.06,0.24 c0.08,0.37,0.15,0.75,0.2,1.13C34.24,38.21,34.28,38.81,34.28,39.42z"
      /><path
        fill="#ffc107"
        d="M32.22,39.42c0,0.2-0.01,0.42-0.02,0.65c-0.02,0.37-0.05,0.77-0.1,1.18c-0.02,0.25-0.06,0.5-0.1,0.75h-5.48 l-1.06-0.17l-4.14-0.66l-0.59-0.09l-1.35-0.22c-0.59,0-1.87,0.26-3.22,0.51c-0.71,0.13-1.43,0.27-2.08,0.36 c-0.08,0.01-0.16,0.02-0.23,0.03h-0.01c-0.7-0.15-1.38-0.38-2.02-0.68c-0.2-0.09-0.4-0.19-0.6-0.3c-0.56-0.31-1.1-0.68-1.59-1.09 c-0.01-0.12-0.02-0.22-0.02-0.27c0-0.26,0.01-0.51,0.03-0.76c0.04-0.64,0.13-1.26,0.27-1.86c0.22-0.91,0.54-1.79,0.97-2.6 c0.08-0.17,0.17-0.34,0.27-0.5c0.04-0.08,0.09-0.15,0.13-0.23c0.18-0.29,0.38-0.57,0.58-0.85c0.42-0.55,0.89-1.07,1.39-1.54 c0.01,0,0.01,0,0.01,0c0.04-0.04,0.08-0.08,0.12-0.11c0.05-0.04,0.09-0.09,0.14-0.12c0.2-0.18,0.4-0.34,0.61-0.49 c0-0.01,0.01-0.01,0.01-0.01c1.89-1.41,4.23-2.24,6.78-2.24c1.98,0,3.82,0.5,5.43,1.38h0.01c1.38,0.76,2.58,1.79,3.53,3.03 c0.37,0.48,0.7,0.99,0.98,1.53h0.01c0.05,0.1,0.1,0.2,0.15,0.3c0.3,0.59,0.54,1.21,0.72,1.85h0.01c0.01,0.05,0.03,0.1,0.04,0.15 c0.12,0.43,0.22,0.87,0.29,1.32c0.01,0.09,0.02,0.19,0.03,0.28C32.19,38.43,32.22,38.92,32.22,39.42z"
      /><path
        fill="#ffd54f"
        d="M30.17,39.31c0,0.16,0,0.33-0.02,0.49v0.01c0,0.01,0,0.01,0,0.01c-0.02,0.72-0.12,1.43-0.28,2.07 c0,0.04-0.01,0.07-0.03,0.11h-4.67l-3.85-0.83l-0.51-0.11l-0.08,0.02l-4.27,0.88L16.27,42H16c-0.64,0-1.27-0.06-1.88-0.18 c-0.09-0.02-0.18-0.04-0.27-0.06h-0.01c-0.7-0.15-1.38-0.38-2.02-0.68c-0.02-0.11-0.04-0.22-0.05-0.33 c-0.07-0.43-0.1-0.88-0.1-1.33c0-0.17,0-0.34,0.01-0.51c0.03-0.54,0.11-1.07,0.23-1.58c0.08-0.38,0.19-0.75,0.32-1.1 c0.11-0.31,0.24-0.61,0.38-0.9c0.12-0.25,0.26-0.49,0.4-0.73c0.14-0.23,0.29-0.45,0.45-0.67c0.4-0.55,0.87-1.06,1.39-1.51 c0.3-0.26,0.63-0.51,0.97-0.73c1.46-0.96,3.21-1.52,5.1-1.52c0.37,0,0.73,0.02,1.08,0.07h0.02c1.07,0.12,2.07,0.42,2.99,0.87 c0.01,0,0.01,0,0.01,0c1.45,0.71,2.68,1.78,3.58,3.1c0.15,0.22,0.3,0.46,0.43,0.7c0.11,0.19,0.21,0.39,0.3,0.59 c0.14,0.31,0.27,0.64,0.38,0.97h0.01c0.11,0.37,0.21,0.74,0.28,1.13v0.01C30.11,38.16,30.17,38.73,30.17,39.31z"
      /><path
        fill="#ffe082"
        d="M28.11,39.52v0.03c0,0.59-0.07,1.17-0.21,1.74c-0.05,0.24-0.12,0.48-0.21,0.71h-4.48l-2.29-0.63L18.63,42H16 c-0.64,0-1.27-0.06-1.88-0.18c-0.02-0.03-0.03-0.06-0.04-0.09c-0.14-0.43-0.25-0.86-0.3-1.31c-0.04-0.29-0.06-0.59-0.06-0.9 c0-0.12,0-0.25,0.02-0.37c0.01-0.47,0.08-0.93,0.2-1.37c0.06-0.3,0.15-0.59,0.27-0.87c0.04-0.14,0.1-0.27,0.17-0.4 c0.15-0.34,0.33-0.67,0.53-0.99c0.22-0.32,0.46-0.62,0.73-0.9c0.32-0.36,0.68-0.69,1.09-0.96c0.7-0.51,1.5-0.89,2.37-1.1 c0.58-0.16,1.19-0.24,1.82-0.24c2,0,3.79,0.8,5.09,2.09c0.05,0.05,0.11,0.11,0.16,0.18h0.01c0.14,0.15,0.27,0.3,0.4,0.47 c0.37,0.47,0.68,0.98,0.92,1.54c0.12,0.26,0.22,0.53,0.3,0.81c0.01,0.04,0.02,0.07,0.03,0.11c0.14,0.49,0.23,1,0.25,1.53 C28.1,39.2,28.11,39.36,28.11,39.52z"
      /><path
        fill="#ffecb3"
        d="M26.06,39.52c0,0.41-0.05,0.8-0.16,1.17c-0.1,0.4-0.25,0.78-0.44,1.14c-0.03,0.06-0.1,0.17-0.1,0.17h-8.88 c-0.01-0.01-0.02-0.03-0.02-0.04c-0.12-0.19-0.22-0.38-0.3-0.59c-0.2-0.46-0.32-0.96-0.36-1.48c-0.02-0.12-0.02-0.25-0.02-0.37 c0-0.06,0-0.13,0.01-0.19c0.01-0.44,0.07-0.86,0.19-1.25c0.1-0.36,0.23-0.69,0.4-1.01c0,0,0.01-0.01,0.01-0.02 c0.12-0.21,0.25-0.42,0.4-0.62c0.49-0.66,1.14-1.2,1.89-1.55c0.01,0,0.01,0,0.01,0c0.24-0.12,0.49-0.22,0.75-0.29c0,0,0,0,0.01,0 c0.46-0.14,0.96-0.21,1.47-0.21c0.59,0,1.16,0.09,1.68,0.28c0.19,0.05,0.37,0.13,0.55,0.22c0,0,0,0,0.01,0 c0.86,0.41,1.59,1.05,2.09,1.85c0.1,0.15,0.19,0.31,0.27,0.48c0.04,0.07,0.08,0.15,0.11,0.22c0.23,0.52,0.37,1.09,0.41,1.69 c0.01,0.05,0.01,0.1,0.01,0.16C26.06,39.36,26.06,39.44,26.06,39.52z"
      /><g><path
          fill="none"
          stroke="#fff"
          stroke-linecap="round"
          stroke-linejoin="round"
          stroke-miterlimit="10"
          stroke-width="2"
          d="M30,11H18c-3.9,0-7,3.1-7,7v12c0,3.9,3.1,7,7,7h12c3.9,0,7-3.1,7-7V18C37,14.1,33.9,11,30,11z"
        /><circle cx="31" cy="16" r="1" fill="#fff" /></g><g><circle
          cx="24"
          cy="24"
          r="6"
          fill="none"
          stroke="#fff"
          stroke-linecap="round"
          stroke-linejoin="round"
          stroke-miterlimit="10"
          stroke-width="2"
        /></g></svg>
    </symbol>

 <symbol viewBox="0 0 28 28" fill="currentColor" id="instagram-color">
 <svg
      xmlns="http://www.w3.org/2000/svg"
      fill="currentColor"
      viewBox="0 0 48 48"
      width="28px"
      height="28px"
    ><path
        d="M 16.5 5 C 10.159 5 5 10.159 5 16.5 L 5 31.5 C 5 37.841 10.159 43 16.5 43 L 31.5 43 C 37.841 43 43 37.841 43 31.5 L 43 16.5 C 43 10.159 37.841 5 31.5 5 L 16.5 5 z M 34 12 C 35.105 12 36 12.895 36 14 C 36 15.104 35.105 16 34 16 C 32.895 16 32 15.104 32 14 C 32 12.895 32.895 12 34 12 z M 24 14 C 29.514 14 34 18.486 34 24 C 34 29.514 29.514 34 24 34 C 18.486 34 14 29.514 14 24 C 14 18.486 18.486 14 24 14 z M 24 17 A 7 7 0 1 0 24 31 A 7 7 0 1 0 24 17 z"
      /></svg>
   </symbol>

  <symbol viewBox="0 0 24 24" fill="currentColor" id="xing">
  <svg xmlns="http://www.w3.org/2000/svg" viewBox="0 0 48 48"><path
        fill="#006064"
        d="M42,37c0,2.762-2.238,5-5,5H11c-2.761,0-5-2.238-5-5V11c0-2.762,2.239-5,5-5h26c2.762,0,5,2.238,5,5V37z"
      /><path
        fill="#FFF"
        d="M16.647,30h-4.038c-0.243,0-0.425-0.11-0.526-0.273c-0.107-0.173-0.113-0.397,0-0.615l4.291-7.524c0.004-0.01,0.004-0.013,0-0.023l-2.73-4.696c-0.115-0.222-0.131-0.442-0.024-0.615C13.721,16.087,13.926,16,14.169,16h4.039c0.619,0,0.923,0.398,1.123,0.755c0,0,2.761,4.783,2.777,4.81c-0.163,0.287-4.359,7.659-4.359,7.659C17.543,29.595,17.251,30,16.647,30z"
      /><path
        fill="#CDDC39"
        d="M35.914,11.881l-8.94,15.808c-0.005,0.011-0.005,0.019,0,0.026l5.692,10.404c0.112,0.224,0.117,0.45,0.009,0.623C32.571,38.908,32.384,39,32.139,39h-4.033c-0.617,0-0.928-0.41-1.127-0.771c0,0-5.724-10.498-5.739-10.525c0.286-0.506,8.984-15.934,8.984-15.934C30.44,11.382,30.704,11,31.305,11h4.082c0.242,0,0.434,0.091,0.536,0.259C36.029,11.431,36.025,11.656,35.914,11.881z"
      />
    </svg>
  </symbol>

 <symbol viewBox="0 0 24 24" fill="currentColor" id="xing-color">
 <svg
      xmlns="http://www.w3.org/2000/svg"
      fill="currentColor"
      viewBox="0 0 50 50"
      width="24px"
      height="24px"
    ><path
        d="M 43.699219 2.097656 L 6.214844 2.097656 C 3.914063 2.097656 2 4.015625 2 6.3125 L 2 43.796875 C 2 46.085938 3.914063 48 6.214844 48 L 43.699219 48 C 45.984375 48 47.898438 46.085938 47.898438 43.796875 L 47.898438 6.3125 C 47.898438 4.015625 45.984375 2.097656 43.699219 2.097656 Z M 16.15625 33 L 10.796875 33 C 10.011719 32.972656 9.835938 32.308594 10.226563 31.738281 L 15.777344 21.5 C 15.960938 21.3125 15.960938 21.039063 15.777344 20.84375 L 12.117188 14.453125 C 11.921875 14.070313 12.117188 13.5 12.5 13.5 L 18 13.5 C 18.195313 13.5 18.386719 13.542969 18.578125 13.882813 L 22.660156 21.039063 C 22.84375 21.226563 22.84375 21.410156 22.660156 21.609375 L 16.726563 32.507813 C 16.726563 32.507813 16.5 32.980469 16.15625 33 Z M 39.488281 8.796875 L 28.75 28.5 C 28.5625 28.695313 28.5625 28.804688 28.75 29 L 35.65625 41.304688 C 36.039063 42.03125 35.65625 42.5 35.089844 42.5 L 29.738281 42.5 C 29.542969 42.5 29.425781 42.367188 29.15625 41.882813 L 21.890625 29 C 21.757813 28.851563 21.761719 28.671875 21.890625 28.492188 L 32.988281 8.027344 C 33.210938 7.597656 33.554688 7.5 33.75 7.5 L 39 7.5 C 39.675781 7.480469 39.789063 8.1875 39.488281 8.796875 Z"
      /></svg>
  </symbol>

</svg>
