<?xml version="1.0" encoding="utf-8"?>
<!-- Generator: Adobe Illustrator 25.4.1, SVG Export Plug-In . SVG Version: 6.00 Build 0)  -->
<svg version="1.1" id="Ebene_1" xmlns="http://www.w3.org/2000/svg" xmlns:xlink="http://www.w3.org/1999/xlink" x="0px" y="0px"
	 viewBox="0 0 500 200" style="enable-background:new 0 0 500 200;" xml:space="preserve">
<style type="text/css">
	.st0{fill:#FFFFFF;}
</style>
<g>
	<g>
		<path class="st0" d="M135.12,39.24v121.52H39.63V39.24H135.12 M143.8,30.56H30.95v138.88H143.8V30.56L143.8,30.56z"/>
	</g>
	<g>
		<path class="st0" d="M198.36,91.43c-2.36,0-4.34,0.43-5.93,1.3c-1.6,0.86-2.9,1.98-3.9,3.34c-1.01,1.37-1.72,2.87-2.13,4.52
			c-0.42,1.64-0.62,3.27-0.62,4.89c0,1.56,0.21,3.15,0.62,4.77c0.42,1.62,1.09,3.08,2.03,4.39c0.94,1.31,2.2,2.38,3.8,3.22
			c1.6,0.84,3.54,1.25,5.83,1.25c3.54,0,6.26-0.79,8.17-2.38s3.1-3.72,3.59-6.4h14.25c-0.97,5.74-3.75,10.12-8.32,13.13
			c-4.58,3.01-10.44,4.52-17.58,4.52c-4.02,0-7.72-0.54-11.08-1.63c-3.37-1.09-6.23-2.61-8.58-4.56c-2.36-1.95-4.2-4.28-5.51-6.98
			c-1.32-2.7-1.98-5.67-1.98-8.9c0-3.34,0.61-6.45,1.82-9.32c1.21-2.87,3-5.35,5.36-7.44c2.36-2.09,5.24-3.72,8.64-4.89
			c3.4-1.17,7.28-1.76,11.65-1.76c3.19,0,6.26,0.33,9.21,1c2.95,0.67,5.58,1.69,7.91,3.05c2.32,1.37,4.21,3.07,5.67,5.1
			c1.46,2.04,2.29,4.45,2.5,7.23h-14.46C208.31,93.91,204.67,91.43,198.36,91.43z"/>
		<path class="st0" d="M240.46,126.88l-18.42-43.23h15.5l11.34,29.52h0.21l11.34-29.52h14.67l-18.21,43.23H240.46z"/>
		<path class="st0" d="M265.16,91.6v-7.94h19.32v-3.34c0-3.85,1.49-6.99,4.47-9.45c2.98-2.45,7.49-3.68,13.53-3.68
			c1.32,0,21.84,0.04,23.16,0.13c1.32,0.08,2.6,0.15,3.85,0.21v8.86c-1.73-0.17-22.74-0.25-24.61-0.25c-2.01,0-3.45,0.38-4.32,1.13
			c-0.87,0.75-1.3,2.02-1.3,3.8v2.59h10.2v7.94h-10.2v35.28h-14.77V91.6H265.16z"/>
		<path class="st0" d="M331.08,67.19v59.7h-14.77v-59.7H331.08z"/>
		<path class="st0" d="M336.07,95.91c1.32-2.81,3.19-5.21,5.62-7.19c2.43-1.98,5.34-3.51,8.74-4.6c3.4-1.09,7.21-1.63,11.44-1.63
			c4.23,0,8.06,0.54,11.5,1.63c3.44,1.09,6.36,2.62,8.79,4.6c2.43,1.98,4.3,4.38,5.62,7.19c1.32,2.82,1.98,5.95,1.98,9.41
			c0,3.46-0.66,6.58-1.98,9.36c-1.32,2.79-3.19,5.17-5.62,7.15c-2.43,1.98-5.36,3.5-8.79,4.56c-3.43,1.06-7.27,1.59-11.5,1.59
			c-4.23,0-8.05-0.53-11.44-1.59c-3.4-1.06-6.31-2.58-8.74-4.56c-2.43-1.98-4.3-4.36-5.62-7.15c-1.32-2.79-1.98-5.91-1.98-9.36
			C334.09,101.86,334.75,98.72,336.07,95.91z M349.49,110.37c0.42,1.64,1.13,3.12,2.13,4.43c1.01,1.31,2.34,2.36,4.01,3.14
			c1.67,0.78,3.75,1.17,6.24,1.17c2.5,0,4.59-0.39,6.3-1.17c1.7-0.78,3.05-1.83,4.06-3.14c1-1.31,1.72-2.79,2.13-4.43
			c0.42-1.64,0.62-3.33,0.62-5.06c0-1.73-0.21-3.43-0.62-5.1c-0.42-1.67-1.13-3.15-2.13-4.43c-1.01-1.28-2.36-2.33-4.06-3.14
			c-1.7-0.81-3.8-1.21-6.3-1.21c-2.5,0-4.58,0.41-6.24,1.21c-1.66,0.81-3,1.85-4.01,3.14c-1.01,1.28-1.72,2.76-2.13,4.43
			c-0.42,1.67-0.62,3.37-0.62,5.1C348.87,107.04,349.07,108.73,349.49,110.37z"/>
		<path class="st0" d="M436.9,126.88l-9.57-29.01h-0.21l-9.16,29.01h-15.29L385.6,83.66h15.61l9.88,29.35h0.21l8.95-29.35h14.36
			l9.16,29.26h0.21l9.88-29.26h15.19l-16.96,43.23H436.9z"/>
	</g>
	<rect x="49.76" y="49.37" class="st0" width="75.23" height="101.26"/>
</g>
</svg>
